<?xml version="1.0" encoding="utf-8"?><svg xmlns="http://www.w3.org/2000/svg" xmlns:xlink="http://www.w3.org/1999/xlink"><symbol fill="none" viewBox="0 0 108 104" id="comp" xmlns="http://www.w3.org/2000/svg"><path d="M73.195 96.242H8.926C4 96.242 0 92.249 0 87.33v-5.346h67.839v3.564H3.57v1.782c0 2.941 2.41 5.347 5.356 5.347h64.269v3.565z" fill="#868695"/><path d="M7.141 83.766h-3.57V30.298c0-4.919 3.998-8.911 8.926-8.911H82.12c4.927 0 8.926 3.992 8.926 8.911v23.17h-3.57v-23.17c0-2.94-2.41-5.346-5.356-5.346H12.497c-2.946 0-5.356 2.406-5.356 5.346v53.468zM85.691 99.806h-3.57v3.565h3.57v-3.565zM78.55 99.806H39.275v3.565H78.55v-3.565z" fill="#868695"/><path d="M103.544 96.242H80.336a3.578 3.578 0 01-3.57-3.565v-3.564a3.578 3.578 0 013.57-3.565v7.13h23.208v-3.565h-5.356v-3.565h5.356a3.578 3.578 0 013.57 3.565v3.564a3.578 3.578 0 01-3.57 3.565z" fill="#00B649"/><path d="M98.188 89.113H74.98a3.578 3.578 0 01-3.57-3.565v-3.564a3.578 3.578 0 013.57-3.565h23.208a3.577 3.577 0 013.57 3.565v3.564a3.578 3.578 0 01-3.57 3.565zm-23.208-7.13v3.565h23.208v-3.564H74.98z" fill="#00B649"/><path d="M103.544 81.984h-5.356v-3.565h5.356v-3.564h-7.141V71.29h7.141a3.578 3.578 0 013.57 3.565v3.564a3.578 3.578 0 01-3.57 3.565zM80.336 81.984a3.578 3.578 0 01-3.57-3.565v-3.564a3.578 3.578 0 013.57-3.565v10.694z" fill="#00B649"/><path d="M96.403 74.855H73.195a3.578 3.578 0 01-3.57-3.565v-3.564a3.578 3.578 0 013.57-3.565h23.208a3.578 3.578 0 013.57 3.565v3.564a3.578 3.578 0 01-3.57 3.565zm-23.208-7.13v3.565h23.208v-3.564H73.195z" fill="#00B649"/><path d="M101.758 67.726h-5.355V64.16h5.355v-3.564H78.55v7.129a3.578 3.578 0 01-3.57-3.565v-3.564a3.578 3.578 0 013.57-3.565h23.208a3.578 3.578 0 013.571 3.565v3.564a3.578 3.578 0 01-3.571 3.565zM16.067 76.637h-3.57V55.25h10.711v14.258h-3.57V58.814h-3.57v17.823zM30.349 73.072h-3.57V46.34h10.71v19.604h-3.57v-16.04h-3.57v23.17zM44.63 69.508h-3.57v-32.08h10.712v24.95h-3.57V40.993H44.63v28.516z" fill="#00B649"/><path d="M23.208 73.072h-3.57v3.565h3.57v-3.565zM37.49 69.508h-3.57v3.564h3.57v-3.564zM51.772 65.943h-3.57v3.565h3.57v-3.565zM83.906 42.774h-3.57v-8.911h-8.927v-3.565h12.497v12.476z" fill="#00B649"/><path d="M70.356 46.339H55.342v-3.565h13.55l11.961-11.959 2.535 2.531-13.032 12.993z" fill="#00B649"/><path d="M57.127 14.258h-3.57v3.565h3.57v-3.565zM57.127 7.129h-3.57v3.565h3.57V7.129zM57.127 0h-3.57v3.564h3.57V0zM99.973 24.951h-3.57v3.565h3.57v-3.564zM99.973 17.823h-3.57v3.564h3.57v-3.564zM99.973 10.694h-3.57v3.564h3.57v-3.564zM14.282 12.476h-3.57v3.564h3.57v-3.564zM14.282 5.347h-3.57V8.91h3.57V5.347z" fill="#868695"/></symbol><symbol fill="none" viewBox="0 0 9 18" id="fb" xmlns="http://www.w3.org/2000/svg"><path d="M1.834 4.167v2.295H.047v2.806h1.787v8.34h3.672v-8.34H7.97s.23-1.345.342-2.817H5.52V4.533c0-.287.4-.673.796-.673h2V.938h-2.72c-3.853 0-3.762 2.81-3.762 3.229z" fill="#fff"/></symbol><symbol fill="none" viewBox="0 0 106 104" id="graph" xmlns="http://www.w3.org/2000/svg"><path d="M3.655 60.21H0V40.14h12.793v3.649H3.655v16.42z" fill="#00B649"/><path d="M14.62 60.21h-3.654V34.666h12.793v3.65H14.62V60.21z" fill="#00B649"/><path d="M36.552 60.21h-3.655V32.842h-7.31V60.21H21.93V29.193h14.62V60.21z" fill="#00B649"/><path d="M18.276 10.947H14.62V23.72h3.655V10.947zM18.276 63.859H14.62v7.298h3.655v-7.298zM91.38 36.49h-3.656v34.667h3.655V36.49zM18.276 27.368H14.62v3.65h3.655v-3.65z" fill="#868695"/><path d="M51.172 12.772H12.793a3.663 3.663 0 01-3.655-3.65V5.475a3.663 3.663 0 013.655-3.65h58.483v3.65H12.793v3.649h38.38v3.649zM93.207 80.28H12.793a3.663 3.663 0 01-3.655-3.65v-3.649a3.663 3.663 0 013.655-3.649h56.655v3.65H12.793v3.648h80.414v-3.649H80.414v-3.649h12.793a3.663 3.663 0 013.655 3.65v3.648a3.663 3.663 0 01-3.655 3.65z" fill="#868695"/><path d="M54.828 78.455h-3.656v23.719h3.656V78.455z" fill="#868695"/><path d="M76.759 100.349H21.93v3.649H76.76v-3.649zM84.069 100.349h-3.655v3.649h3.655v-3.649z" fill="#868695"/><path d="M64.715 103.323L53 88.983l-11.715 14.34-2.833-2.299L53 83.217l14.548 17.807-2.833 2.299z" fill="#868695"/><path d="M67.62 36.49h-3.655V63.86h3.656V36.49zM74.931 36.49h-3.655v5.474h3.655v-5.473z" fill="#00B649"/><path d="M75.845 60.21H60.31v-3.65h15.535a2.735 2.735 0 002.741-2.736 2.735 2.735 0 00-2.741-2.737H65.793v-3.65h10.052c3.527 0 6.396 2.865 6.396 6.387 0 3.521-2.869 6.386-6.396 6.386z" fill="#00B649"/><path d="M74.931 51.087v-3.65a1.831 1.831 0 001.828-1.824 1.831 1.831 0 00-1.828-1.824h-14.62v-3.65h14.62c3.016 0 5.483 2.464 5.483 5.474 0 3.01-2.467 5.474-5.483 5.474zM74.931 58.385h-3.655v5.474h3.655v-5.474zM89.552 32.842c-9.065 0-16.449-7.371-16.449-16.421C73.103 7.37 80.487 0 89.552 0 98.617 0 106 7.371 106 16.42c0 9.05-7.383 16.422-16.448 16.422zm0-29.193c-7.055 0-12.793 5.73-12.793 12.772 0 7.043 5.738 12.772 12.793 12.772 7.054 0 12.793-5.73 12.793-12.772 0-7.043-5.739-12.772-12.793-12.772z" fill="#00B649"/><path d="M58.483 9.123h-3.655v3.649h3.655v-3.65z" fill="#868695"/><path d="M98.598 28.025L87.724 17.169V1.825h3.655v13.848l9.796 9.78-2.577 2.572z" fill="#00B649"/></symbol><symbol fill="none" viewBox="0 0 18 16" id="tg" xmlns="http://www.w3.org/2000/svg"><path d="M4.558 9.01l2.077 5.056 2.702-2.633 4.626 3.588L17.221.73.551 7.505 4.558 9.01zm7.898-4.179l-5.098 4.54-.64 2.335-1.173-2.863 6.911-4.012z" fill="#fff"/></symbol><symbol fill="none" viewBox="0 0 114 114" id="thumb" xmlns="http://www.w3.org/2000/svg"><path d="M79.401 110l-2.22-3.878a4.472 4.472 0 011.683-6.095l20.23-11.492c2.148-1.215 4.815-.5 6.086 1.645.537.893 2.184 3.52 2.184 3.52l-3.025 1.913s-1.701-2.68-2.238-3.592c-.269-.447-.806-.608-1.235-.358l-20.23 11.492a.902.902 0 00-.34 1.215l2.22 3.879L79.401 110z" fill="#868695"/><path d="M80.959 102.029L51.42 87.284a6.237 6.237 0 01-3.455-5.594c0-3.449 2.81-6.255 6.266-6.255.966 0 1.897.215 2.792.661 1.576.769 5.156 2.485 7.555 3.646l-12.21-19.32a5.355 5.355 0 01-.823-2.841c0-2.95 2.417-5.362 5.371-5.362 1.844 0 3.545.93 4.547 2.502 1.826 2.86 6.713 10.277 8.683 13.262l9.917-4.29a8.955 8.955 0 0111.35 3.771l2.936 5.165a26.522 26.522 0 012.847 7.364l2.47 10.902-3.49.786-2.471-10.902a23.481 23.481 0 00-2.47-6.38l-2.937-5.165a5.36 5.36 0 00-6.802-2.27L68.82 72.45l-.824-1.251c-.071-.108-7.214-10.92-9.523-14.549a1.817 1.817 0 00-1.54-.857 1.794 1.794 0 00-1.522 2.734l13.606 21.518a2.769 2.769 0 01-.269 3.36 2.826 2.826 0 01-3.33.697c-.017 0-7.5-3.592-9.971-4.807a2.649 2.649 0 00-1.217-.286 2.68 2.68 0 00-1.2 5.075L82.57 98.83l-1.611 3.199z" fill="#868695"/><path d="M55.126 70.073c-7.895 0-14.322-6.416-14.322-14.297 0-7.882 6.427-14.298 14.322-14.298s14.322 6.416 14.322 14.298c0 3.199-1.039 6.237-3.008 8.775l-2.828-2.198a10.644 10.644 0 002.255-6.577c0-5.916-4.816-10.724-10.741-10.724-5.926 0-10.741 4.808-10.741 10.724 0 5.915 4.815 10.723 10.74 10.723 1.147 0 2.292-.179 3.384-.536l1.11 3.396c-1.45.482-2.953.715-4.493.715z" fill="#00B649"/><path d="M80.189 66.338h-3.58v-37.37c0-.983-.806-1.788-1.79-1.788h-7.162v-3.574h7.161c2.954 0 5.37 2.413 5.37 5.361v37.371zM53.175 84.371H31.853v3.575h21.322V84.37z" fill="#868695"/><path d="M67.496 95.095H35.434c-2.954 0-5.371-2.413-5.371-5.362V28.967c0-2.948 2.417-5.361 5.37-5.361h7.161v3.574h-7.16c-.985 0-1.79.805-1.79 1.788v60.765c0 .983.805 1.787 1.79 1.787h32.062v3.575z" fill="#868695"/><path d="M60.496 37.904h-3.58V16.457h5.37l-7.16-8.936-7.161 8.936h5.37v14.298h-3.58V20.03h-1.79a3.588 3.588 0 01-3.58-3.574c0-.804.286-1.609.787-2.234l7.161-8.936c1.379-1.716 4.225-1.716 5.586 0l7.16 8.936c.502.625.788 1.43.788 2.234a3.588 3.588 0 01-3.58 3.574h-1.79v17.873z" fill="#00B649"/><path d="M53.336 34.33h-3.58v3.574h3.58v-3.575zM87.35 7.52h-3.58v3.575h3.58V7.521zM87.35 14.67h-3.58v3.574h3.58V14.67zM87.35 21.819h-3.58v3.574h3.58v-3.574zM99.881 18.244h-3.58v3.575h3.58v-3.575zM99.881 25.393h-3.58v10.723h3.58V25.393zM89.14 36.116h-3.58v16.085h3.58V36.116zM99.881 46.84h-3.58v3.574h3.58V46.84zM99.881 53.989h-3.58v3.574h3.58v-3.574zM99.881 61.138h-3.58v8.935h3.58v-8.935zM8.58 86.158H5v16.085h3.58V86.158zM8.58 79.01H5v3.574h3.58V79.01zM22.902 80.797h-3.58V91.52h3.58V80.797zM22.902 73.648h-3.58v3.574h3.58v-3.574zM22.902 66.499h-3.58v3.575h3.58v-3.575zM10.37 45.052H6.79v19.66h3.58v-19.66zM24.692 46.84h-3.58v3.574h3.58V46.84zM24.692 39.69h-3.58v3.575h3.58v-3.574zM24.692 32.542h-3.58v3.574h3.58v-3.574zM12.16 14.67H8.58v14.298h3.58V14.67zM26.483 7.52h-3.581v12.511h3.58V7.521z" fill="#868695"/></symbol><symbol fill="none" viewBox="0 0 18 15" id="twitter" xmlns="http://www.w3.org/2000/svg"><path d="M17.084 2.123c-.62.271-1.28.45-1.969.537A3.39 3.39 0 0016.62.78c-.661.392-1.39.67-2.168.824A3.432 3.432 0 0011.955.525a3.41 3.41 0 00-3.416 3.407c0 .27.023.529.08.776a9.682 9.682 0 01-7.044-3.562 3.424 3.424 0 00-.468 1.721c0 1.18.61 2.225 1.518 2.83a3.388 3.388 0 01-1.544-.42v.038a3.423 3.423 0 002.738 3.346 3.41 3.41 0 01-.896.112c-.22 0-.44-.013-.647-.058a3.448 3.448 0 003.193 2.372 6.885 6.885 0 01-4.237 1.453c-.28 0-.55-.013-.818-.047a9.644 9.644 0 005.243 1.528c6.289 0 9.727-5.19 9.727-9.69 0-.15-.005-.295-.013-.44a6.81 6.81 0 001.713-1.768z" fill="#fff"/></symbol><symbol fill="none" viewBox="0 0 18 14" id="youtube" xmlns="http://www.w3.org/2000/svg"><path d="M8.732 13.021c-1.214-.059-3.055-.142-4.896-.24a4.379 4.379 0 01-.936-.148c-.946-.262-1.489-.95-1.649-1.988-.318-2.06-.317-4.134-.186-6.21.043-.685.107-1.377.245-2.046C1.51 1.41 2.1.787 3.018.614 3.6.504 4.191.428 4.78.414 6.959.361 9.138.316 11.318.32c1.16.002 2.321.103 3.481.176.307.02.615.076.915.152.977.248 1.503.96 1.671 2.01.293 1.82.304 3.657.227 5.493-.038.88-.123 1.764-.27 2.63-.2 1.179-.969 1.84-2.067 1.96-1.968.218-3.941.217-6.543.28zm3.273-6.355L7.704 3.958v5.404c1.44-.901 2.852-1.788 4.301-2.696z" fill="#fff"/></symbol></svg>