<svg width="108" height="104" viewBox="0 0 108 104" fill="none" xmlns="http://www.w3.org/2000/svg">
<path d="M73.1946 96.2417H8.92617C3.99893 96.2417 0 92.2494 0 87.3304V81.9836H67.8389V85.5482H3.57047V87.3304C3.57047 90.2711 5.98054 92.6772 8.92617 92.6772H73.1946V96.2417Z" fill="#868695"/>
<path d="M7.14095 83.7659H3.57048V30.2983C3.57048 25.3793 7.56941 21.387 12.4967 21.387H82.1208C87.0481 21.387 91.047 25.3793 91.047 30.2983V53.4676H87.4765V30.2983C87.4765 27.3576 85.0665 24.9515 82.1208 24.9515H12.4967C9.55102 24.9515 7.14095 27.3576 7.14095 30.2983V83.7659Z" fill="#868695"/>
<path d="M85.6913 99.8062H82.1208V103.371H85.6913V99.8062Z" fill="#868695"/>
<path d="M78.5503 99.8062H39.2752V103.371H78.5503V99.8062Z" fill="#868695"/>
<path d="M103.544 96.2417H80.3356C78.3718 96.2417 76.7651 94.6376 76.7651 92.6771V89.1126C76.7651 87.1522 78.3718 85.5481 80.3356 85.5481V92.6771H103.544V89.1126H98.1879V85.5481H103.544C105.507 85.5481 107.114 87.1522 107.114 89.1126V92.6771C107.114 94.6376 105.507 96.2417 103.544 96.2417Z" fill="#00B649"/>
<path d="M98.1879 89.1127H74.9799C73.0161 89.1127 71.4094 87.5086 71.4094 85.5481V81.9836C71.4094 80.0232 73.0161 78.4191 74.9799 78.4191H98.1879C100.152 78.4191 101.758 80.0232 101.758 81.9836V85.5481C101.758 87.5086 100.152 89.1127 98.1879 89.1127ZM74.9799 81.9836V85.5481H98.1879V81.9836H74.9799Z" fill="#00B649"/>
<path d="M103.544 81.9836H98.1879V78.4191H103.544V74.8546H96.4027V71.2901H103.544C105.507 71.2901 107.114 72.8941 107.114 74.8546V78.4191C107.114 80.3796 105.507 81.9836 103.544 81.9836Z" fill="#00B649"/>
<path d="M80.3356 81.9836C78.3718 81.9836 76.7651 80.3796 76.7651 78.4191V74.8546C76.7651 72.8941 78.3718 71.2901 80.3356 71.2901V81.9836Z" fill="#00B649"/>
<path d="M96.4027 74.8546H73.1946C71.2309 74.8546 69.6242 73.2506 69.6242 71.2901V67.7256C69.6242 65.7652 71.2309 64.1611 73.1946 64.1611H96.4027C98.3664 64.1611 99.9731 65.7652 99.9731 67.7256V71.2901C99.9731 73.2506 98.3664 74.8546 96.4027 74.8546ZM73.1946 67.7256V71.2901H96.4027V67.7256H73.1946Z" fill="#00B649"/>
<path d="M101.758 67.7256H96.4027V64.1611H101.758V60.5966H78.5503V67.7256C76.5866 67.7256 74.9799 66.1216 74.9799 64.1611V60.5966C74.9799 58.6361 76.5866 57.0321 78.5503 57.0321H101.758C103.722 57.0321 105.329 58.6361 105.329 60.5966V64.1611C105.329 66.1216 103.722 67.7256 101.758 67.7256Z" fill="#00B649"/>
<path d="M16.0671 76.6369H12.4966V55.2498H23.2081V69.5079H19.6376V58.8143H16.0671V76.6369Z" fill="#00B649"/>
<path d="M30.349 73.0724H26.7785V46.3386H37.4899V65.9434H33.9195V49.9031H30.349V73.0724Z" fill="#00B649"/>
<path d="M44.6309 69.5079H41.0604V37.4273H51.7718V62.3789H48.2013V40.9918H44.6309V69.5079Z" fill="#00B649"/>
<path d="M23.2081 73.0724H19.6376V76.6369H23.2081V73.0724Z" fill="#00B649"/>
<path d="M37.4899 69.5079H33.9195V73.0724H37.4899V69.5079Z" fill="#00B649"/>
<path d="M51.7718 65.9434H48.2013V69.5079H51.7718V65.9434Z" fill="#00B649"/>
<path d="M83.906 42.774H80.3356V33.8628H71.4094V30.2983H83.906V42.774Z" fill="#00B649"/>
<path d="M70.3561 46.3386H55.3423V42.7741H68.8922L80.8533 30.8152L83.3883 33.346L70.3561 46.3386Z" fill="#00B649"/>
<path d="M57.1275 14.258H53.5571V17.8225H57.1275V14.258Z" fill="#868695"/>
<path d="M57.1275 7.12903H53.5571V10.6935H57.1275V7.12903Z" fill="#868695"/>
<path d="M57.1275 0H53.5571V3.5645H57.1275V0Z" fill="#868695"/>
<path d="M99.9731 24.9515H96.4027V28.516H99.9731V24.9515Z" fill="#868695"/>
<path d="M99.9731 17.8225H96.4027V21.387H99.9731V17.8225Z" fill="#868695"/>
<path d="M99.9731 10.6935H96.4027V14.258H99.9731V10.6935Z" fill="#868695"/>
<path d="M14.2819 12.4758H10.7114V16.0403H14.2819V12.4758Z" fill="#868695"/>
<path d="M14.2819 5.34674H10.7114V8.91125H14.2819V5.34674Z" fill="#868695"/>
</svg>
