<svg width="9" height="18" viewBox="0 0 9 18" fill="none" xmlns="http://www.w3.org/2000/svg">
<path d="M1.83412 4.16659C1.83412 4.58683 1.83412 6.46156 1.83412 6.46156H0.0466919V9.26845H1.83412V17.6086H5.50577V9.26845H7.96951C7.96951 9.26845 8.19986 7.92301 8.31208 6.45114C7.99091 6.45114 5.51979 6.45114 5.51979 6.45114C5.51979 6.45114 5.51979 4.81883 5.51979 4.53265C5.51979 4.24578 5.91996 3.85958 6.31569 3.85958C6.71069 3.85958 7.5435 3.85958 8.31578 3.85958C8.31578 3.47754 8.31578 2.15711 8.31578 0.93808C7.28509 0.93808 6.11268 0.93808 5.59586 0.93808C1.74333 0.93808 1.83412 3.74705 1.83412 4.16659Z" fill="white"/>
</svg>
