<svg width="106" height="104" viewBox="0 0 106 104" fill="none" xmlns="http://www.w3.org/2000/svg">
<path d="M3.65517 60.2096H0V40.1398H12.7931V43.7888H3.65517V60.2096Z" fill="#00B649"/>
<path d="M14.6207 60.2096H10.9655V34.6661H23.7586V38.3152H14.6207V60.2096Z" fill="#00B649"/>
<path d="M36.5518 60.2097H32.8966V32.8416H25.5863V60.2097H21.9311V29.1926H36.5518V60.2097Z" fill="#00B649"/>
<path d="M18.2758 10.9472H14.6207V23.7189H18.2758V10.9472Z" fill="#868695"/>
<path d="M18.2758 63.8587H14.6207V71.1568H18.2758V63.8587Z" fill="#868695"/>
<path d="M91.3794 36.4907H87.7242V71.1569H91.3794V36.4907Z" fill="#868695"/>
<path d="M18.2758 27.368H14.6207V31.0171H18.2758V27.368Z" fill="#868695"/>
<path d="M51.1724 12.7717H12.7931C10.7827 12.7717 9.13788 11.1297 9.13788 9.12266V5.47359C9.13788 3.4666 10.7827 1.82452 12.7931 1.82452H71.2758V5.47359H12.7931V9.12266H51.1724V12.7717Z" fill="#868695"/>
<path d="M93.2069 80.2796H12.7931C10.7827 80.2796 9.13788 78.6375 9.13788 76.6305V72.9814C9.13788 70.9744 10.7827 69.3323 12.7931 69.3323H69.4482V72.9814H12.7931V76.6305H93.2069V72.9814H80.4137V69.3323H93.2069C95.2172 69.3323 96.862 70.9744 96.862 72.9814V76.6305C96.862 78.6375 95.2172 80.2796 93.2069 80.2796Z" fill="#868695"/>
<path d="M54.8276 78.455H51.1724V102.174H54.8276V78.455Z" fill="#868695"/>
<path d="M76.7587 100.349H21.9311V103.998H76.7587V100.349Z" fill="#868695"/>
<path d="M84.069 100.349H80.4138V103.998H84.069V100.349Z" fill="#868695"/>
<path d="M64.7148 103.323L53 88.9826L41.2851 103.323L38.4524 101.024L53 83.217L67.5476 101.024L64.7148 103.323Z" fill="#868695"/>
<path d="M67.6207 36.4907H63.9655V63.8587H67.6207V36.4907Z" fill="#00B649"/>
<path d="M74.931 36.4907H71.2759V41.9643H74.931V36.4907Z" fill="#00B649"/>
<path d="M75.8448 60.2096H60.3103V56.5605H75.8448C77.3617 56.5605 78.5862 55.3381 78.5862 53.8237C78.5862 52.3094 77.3617 51.0869 75.8448 51.0869H65.7931V47.4379H75.8448C79.3721 47.4379 82.2414 50.3024 82.2414 53.8237C82.2414 57.3451 79.3721 60.2096 75.8448 60.2096Z" fill="#00B649"/>
<path d="M74.931 51.087V47.4379C75.9362 47.4379 76.7586 46.6169 76.7586 45.6134C76.7586 44.6099 75.9362 43.7888 74.931 43.7888H60.3103V40.1398H74.931C77.9466 40.1398 80.4138 42.6029 80.4138 45.6134C80.4138 48.6239 77.9466 51.087 74.931 51.087Z" fill="#00B649"/>
<path d="M74.931 58.3851H71.2759V63.8587H74.931V58.3851Z" fill="#00B649"/>
<path d="M89.5518 32.8416C80.487 32.8416 73.1035 25.4705 73.1035 16.4208C73.1035 7.37112 80.487 0 89.5518 0C98.6166 0 106 7.37112 106 16.4208C106 25.4705 98.6166 32.8416 89.5518 32.8416ZM89.5518 3.64907C82.4973 3.64907 76.7587 9.37811 76.7587 16.4208C76.7587 23.4635 82.4973 29.1926 89.5518 29.1926C96.6063 29.1926 102.345 23.4635 102.345 16.4208C102.345 9.37811 96.6063 3.64907 89.5518 3.64907Z" fill="#00B649"/>
<path d="M58.4828 9.12268H54.8276V12.7718H58.4828V9.12268Z" fill="#868695"/>
<path d="M98.5983 28.0248L87.7242 17.1689V1.82452H91.3794V15.6727L101.175 25.4522L98.5983 28.0248Z" fill="#00B649"/>
</svg>
