<svg width="21" height="21" viewBox="0 0 21 21" fill="none" xmlns="http://www.w3.org/2000/svg">
<path d="M7.0013 2.69286C9.14464 1.79745 11.6329 1.76894 13.799 2.61302C15.1842 3.14912 16.4326 4.04453 17.3589 5.21085C18.2852 6.37146 18.8723 7.80582 18.9778 9.28867C19.0975 10.7886 18.7298 12.3142 17.9603 13.606C17.2905 14.7381 16.3271 15.6877 15.207 16.3749C13.9244 17.1648 12.4366 17.6097 10.9317 17.6753C9.96834 17.7209 8.99358 17.6154 8.06442 17.3588C6.94145 17.9063 5.82132 18.4538 4.69835 18.9984C4.88931 18.0089 5.08312 17.0194 5.27694 16.0299C4.09696 15.183 3.13644 14.0224 2.57496 12.6821C2.14458 11.6641 1.95077 10.5491 2.01062 9.44836C2.08188 7.99688 2.61201 6.57963 3.48132 5.41616C4.37628 4.20708 5.61611 3.26889 7.0013 2.69286ZM11.7497 9.76774C11.0372 9.04057 10.3246 8.31056 9.60922 7.5834C8.11572 9.17745 6.62222 10.7687 5.13158 12.3656C6.48256 11.627 7.83355 10.8884 9.18454 10.1499C9.90564 10.8856 10.621 11.627 11.3421 12.3656C12.8755 10.7458 14.4089 9.12612 15.9423 7.5064C14.5457 8.25923 13.1492 9.01491 11.7497 9.76774Z" fill="white"/>
</svg>
