<svg width="114" height="114" viewBox="0 0 114 114" fill="none" xmlns="http://www.w3.org/2000/svg">
<path d="M79.401 110L77.1811 106.122C75.9638 103.977 76.7157 101.243 78.8639 100.027L99.0933 88.5355C101.242 87.3202 103.909 88.0351 105.18 90.1797C105.717 91.0733 107.364 93.7006 107.364 93.7006L104.339 95.6129C104.339 95.6129 102.638 92.9321 102.101 92.0206C101.832 91.5738 101.295 91.4129 100.866 91.6631L80.6363 103.155C80.2066 103.405 80.0634 103.941 80.2961 104.37L82.516 108.249L79.401 110Z" fill="#868695"/>
<path d="M80.9585 102.029L51.4201 87.2845C49.2897 86.2121 47.965 84.0675 47.965 81.6904C47.965 78.2411 50.7756 75.4352 54.2307 75.4352C55.1974 75.4352 56.1283 75.6496 57.0234 76.0964C58.5988 76.8649 62.1792 78.5807 64.5781 79.7424L52.3689 60.4225C51.8318 59.5647 51.5454 58.5817 51.5454 57.5808C51.5454 54.6319 53.9622 52.2192 56.916 52.2192C58.7599 52.2192 60.4606 53.1485 61.4631 54.7213C63.2892 57.5809 68.1764 64.9978 70.1457 67.9825L80.0634 63.6931C84.2704 61.8702 89.1398 63.4965 91.4133 67.4642L94.3493 72.6292C95.6561 74.9347 96.6228 77.4011 97.1957 79.9926L99.6662 90.8946L96.1753 91.681L93.7048 80.779C93.2035 78.545 92.3621 76.4003 91.2343 74.3986L88.2984 69.2335C86.9378 66.8386 84.0019 65.8735 81.4956 66.9637L68.8209 72.4505L67.9974 71.1995C67.9258 71.0922 60.7829 60.2796 58.4735 56.6515C58.1334 56.1153 57.5605 55.7936 56.9339 55.7936C55.9493 55.7936 55.1437 56.5979 55.1437 57.5808C55.1437 57.9204 55.2332 58.2421 55.4122 58.5281L69.0178 80.0462C69.6981 81.1007 69.5907 82.459 68.7493 83.4062C67.9079 84.3534 66.5831 84.6394 65.4195 84.1032C65.4016 84.1032 57.9185 80.5109 55.448 79.2956C55.0542 79.099 54.6603 79.0096 54.2307 79.0096C52.7448 79.0096 51.5454 80.2071 51.5454 81.6904C51.5454 82.7092 52.1183 83.6385 53.0313 84.0853L82.5697 98.8299L80.9585 102.029Z" fill="#868695"/>
<path d="M55.1259 70.0735C47.2311 70.0735 40.8042 63.6574 40.8042 55.7757C40.8042 47.8941 47.2311 41.478 55.1259 41.478C63.0207 41.478 69.4475 47.8941 69.4475 55.7757C69.4475 58.9749 68.4092 62.0131 66.44 64.551L63.6115 62.3527C65.0794 60.4582 65.8671 58.1885 65.8671 55.7757C65.8671 49.86 61.0515 45.0524 55.1259 45.0524C49.2003 45.0524 44.3846 49.86 44.3846 55.7757C44.3846 61.6914 49.2003 66.4991 55.1259 66.4991C56.2716 66.4991 57.4173 66.3203 58.5094 65.9629L59.6193 69.3586C58.1692 69.8412 56.6655 70.0735 55.1259 70.0735Z" fill="#00B649"/>
<path d="M80.1888 66.3382H76.6084V28.9675C76.6084 27.9845 75.8028 27.1803 74.8182 27.1803H67.6573V23.6058H74.8182C77.772 23.6058 80.1888 26.0186 80.1888 28.9675V66.3382Z" fill="#868695"/>
<path d="M53.1745 84.3713H31.8531V87.9457H53.1745V84.3713Z" fill="#868695"/>
<path d="M67.4962 95.0946H35.4336C32.4797 95.0946 30.0629 92.6818 30.0629 89.7329V28.9675C30.0629 26.0186 32.4797 23.6058 35.4336 23.6058H42.5944V27.1803H35.4336C34.4489 27.1803 33.6433 27.9845 33.6433 28.9675V89.7329C33.6433 90.7159 34.4489 91.5201 35.4336 91.5201H67.4962V95.0946Z" fill="#868695"/>
<path d="M60.4965 37.9036H56.916V16.4569H62.2867L55.1258 7.52083L47.965 16.4569H53.3356V30.7547H49.7552V20.0314H47.965C45.9958 20.0314 44.3846 18.4229 44.3846 16.4569C44.3846 15.6527 44.671 14.8484 45.1723 14.2229L52.3331 5.2868C53.7116 3.57107 56.558 3.57107 57.9186 5.2868L65.0794 14.2229C65.5807 14.8484 65.8671 15.6527 65.8671 16.4569C65.8671 18.4229 64.2559 20.0314 62.2867 20.0314H60.4965V37.9036Z" fill="#00B649"/>
<path d="M53.3356 34.3291H49.7552V37.9036H53.3356V34.3291Z" fill="#868695"/>
<path d="M87.3496 7.52087H83.7692V11.0953H87.3496V7.52087Z" fill="#868695"/>
<path d="M87.3496 14.6697H83.7692V18.2442H87.3496V14.6697Z" fill="#868695"/>
<path d="M87.3496 21.8186H83.7692V25.393H87.3496V21.8186Z" fill="#868695"/>
<path d="M99.8811 18.2441H96.3007V21.8186H99.8811V18.2441Z" fill="#868695"/>
<path d="M99.8811 25.393H96.3007V36.1163H99.8811V25.393Z" fill="#868695"/>
<path d="M89.1398 36.1163H85.5594V52.2013H89.1398V36.1163Z" fill="#868695"/>
<path d="M99.8811 46.8397H96.3007V50.4141H99.8811V46.8397Z" fill="#868695"/>
<path d="M99.8811 53.9886H96.3007V57.563H99.8811V53.9886Z" fill="#868695"/>
<path d="M99.8811 61.1375H96.3007V70.0735H99.8811V61.1375Z" fill="#868695"/>
<path d="M8.58042 86.1584H5V102.243H8.58042V86.1584Z" fill="#868695"/>
<path d="M8.58042 79.0096H5V82.584H8.58042V79.0096Z" fill="#868695"/>
<path d="M22.9021 80.7968H19.3217V91.5202H22.9021V80.7968Z" fill="#868695"/>
<path d="M22.9021 73.6479H19.3217V77.2224H22.9021V73.6479Z" fill="#868695"/>
<path d="M22.9021 66.499H19.3217V70.0735H22.9021V66.499Z" fill="#868695"/>
<path d="M10.3706 45.0524H6.79022V64.7118H10.3706V45.0524Z" fill="#868695"/>
<path d="M24.6923 46.8397H21.1119V50.4141H24.6923V46.8397Z" fill="#868695"/>
<path d="M24.6923 39.6907H21.1119V43.2652H24.6923V39.6907Z" fill="#868695"/>
<path d="M24.6923 32.5419H21.1119V36.1163H24.6923V32.5419Z" fill="#868695"/>
<path d="M12.1608 14.6697H8.58038V28.9675H12.1608V14.6697Z" fill="#868695"/>
<path d="M26.4825 7.52087H22.902V20.0314H26.4825V7.52087Z" fill="#868695"/>
</svg>
