<svg width="18" height="15" viewBox="0 0 18 15" fill="none" xmlns="http://www.w3.org/2000/svg">
<path d="M17.0843 2.12345C16.4647 2.39404 15.8034 2.57329 15.1151 2.66049C15.8236 2.23902 16.3647 1.57672 16.6189 0.778774C15.9577 1.17117 15.2283 1.44869 14.451 1.60302C13.8238 0.937954 12.9299 0.525482 11.9546 0.525482C10.0625 0.525482 8.53929 2.05562 8.53929 3.93179C8.53929 4.2017 8.56222 4.46053 8.61848 4.70759C5.77755 4.56987 3.26309 3.21344 1.57451 1.14626C1.28 1.65631 1.10702 2.23971 1.10702 2.86741C1.10702 4.04668 1.71619 5.09169 2.62473 5.69724C2.0753 5.68686 1.53701 5.52769 1.08065 5.27785C1.08065 5.28823 1.08065 5.30138 1.08065 5.31522C1.08065 6.96994 2.26492 8.34437 3.81875 8.66064C3.54021 8.73676 3.23738 8.77275 2.92272 8.77275C2.70392 8.77275 2.48306 8.76028 2.27607 8.71461C2.71853 10.0634 3.97506 11.0545 5.46915 11.087C4.30639 11.9929 2.83033 12.5396 1.23205 12.5396C0.951426 12.5396 0.68263 12.5265 0.413818 12.4926C1.92736 13.4656 3.7222 14.0206 5.65666 14.0206C11.9456 14.0206 15.3839 8.83018 15.3839 4.33111C15.3839 4.18024 15.379 4.03561 15.3714 3.89097C16.0493 3.41137 16.6196 2.81274 17.0843 2.12345Z" fill="white"/>
</svg>
