<svg width="18" height="14" viewBox="0 0 18 14" fill="none" xmlns="http://www.w3.org/2000/svg">
<path d="M8.7317 13.021C7.51822 12.9625 5.67681 12.8793 3.83634 12.7816C3.5219 12.7652 3.20371 12.7169 2.89963 12.6326C1.9535 12.3706 1.41125 11.6822 1.25121 10.6454C0.933009 8.58525 0.933951 6.51069 1.06481 4.4351C1.10811 3.74974 1.17213 3.05822 1.30958 2.38931C1.51104 1.40905 2.10037 0.787403 3.01825 0.613752C3.5991 0.503808 4.19125 0.427771 4.77964 0.413386C6.95902 0.36201 9.13839 0.316799 11.3178 0.319882C12.4785 0.321937 13.6393 0.422634 14.7991 0.495587C15.106 0.51511 15.4139 0.571624 15.7142 0.64766C16.6914 0.89632 17.2167 1.60839 17.3852 2.65852C17.678 4.47825 17.6893 6.31546 17.6121 8.15061C17.5744 9.03016 17.4888 9.91486 17.3419 10.7811C17.1423 11.9596 16.3732 12.6203 15.2745 12.7416C13.307 12.9594 11.3338 12.9584 8.7317 13.021ZM12.005 6.66584C10.5552 5.7534 9.13839 4.86152 7.70368 3.95833C7.70368 5.7719 7.70368 7.55259 7.70368 9.36205C9.1431 8.46092 10.5562 7.57417 12.005 6.66584Z" fill="white"/>
</svg>
