<svg width="120" height="120" fill="none" xmlns="http://www.w3.org/2000/svg"><circle cx="60" cy="60" r="60" fill="#E3E3E3"/><path d="M90.659 78.213a41.313 41.313 0 01-4.085 7.344c-2.148 3.063-3.907 5.183-5.263 6.36-2.1 1.932-4.352 2.922-6.763 2.978-1.73 0-3.817-.492-6.247-1.491-2.437-.995-4.677-1.487-6.725-1.487-2.148 0-4.452.492-6.916 1.487-2.468.999-4.456 1.52-5.976 1.57-2.312.1-4.616-.918-6.916-3.057-1.468-1.28-3.304-3.475-5.504-6.585-2.36-3.32-4.3-7.17-5.82-11.56C28.816 69.03 28 64.437 28 59.991c0-5.091 1.1-9.483 3.304-13.163 1.732-2.956 4.036-5.288 6.92-7 2.884-1.712 6-2.584 9.356-2.64 1.836 0 4.244.568 7.236 1.684 2.984 1.12 4.9 1.688 5.74 1.688.628 0 2.756-.664 6.364-1.988 3.412-1.228 6.292-1.736 8.65-1.536 6.393.516 11.196 3.036 14.39 7.576-5.717 3.464-8.545 8.316-8.49 14.54.052 4.848 1.811 8.882 5.268 12.086A17.307 17.307 0 0092 74.69a56.862 56.862 0 01-1.341 3.523zM75.998 20.52c0 3.8-1.389 7.347-4.156 10.631-3.339 3.904-7.378 6.16-11.758 5.804a11.812 11.812 0 01-.088-1.44c0-3.647 1.588-7.551 4.408-10.743 1.408-1.617 3.199-2.96 5.37-4.032 2.167-1.056 4.216-1.64 6.144-1.74.056.508.08 1.015.08 1.52z" fill="#000"/></svg>