<svg width="121" height="120" fill="none" xmlns="http://www.w3.org/2000/svg"><circle cx="60.5" cy="60" r="60" fill="#CF0000"/><path d="M97.5 69.486c0-3.834-.997-6.638-2.962-8.337-1.785-1.56-5.216-2.989-10.204-4.249l-.39-.098V45.02l.752.38c.438.222.85.474 1.221.747 1.615 1.188 2.565 2.788 2.829 4.758h7.65c-.416-3.882-2.016-7.02-4.76-9.336-1.996-1.682-4.442-2.8-7.269-3.32l-.422-.079V33h-6.921v5.083l-.446.062c-3.256.457-5.986 1.567-8.113 3.297-2.859 2.33-4.309 5.53-4.309 9.511 0 3.532 1.076 6.154 3.2 7.794 1.723 1.337 4.847 2.625 9.287 3.83l.38.105v12.71l-.674-.214c-1.016-.323-1.912-.786-2.659-1.379-1.548-1.227-2.431-2.954-2.628-5.142H63.5c.303 4.2 1.87 7.496 4.659 9.8 2.159 1.784 4.992 2.926 8.42 3.394l.446.06V87h6.921v-5.078l.45-.057c3.447-.443 6.333-1.521 8.58-3.205 3.044-2.281 4.524-5.282 4.524-9.174zm-20.478-14.39l-.673-.211c-1.134-.356-1.972-.682-2.562-.996-1.509-.792-2.277-1.946-2.277-3.43 0-1.948.71-3.493 2.112-4.593.749-.588 1.677-1.021 2.758-1.288l.64-.159v10.677h.002zm10.383 19.198c-.794.46-1.747.816-2.832 1.058l-.63.14V64.376l.667.2c1.636.492 2.78.968 3.493 1.45 1.294.854 1.953 2.196 1.953 3.986 0 1.823-.89 3.264-2.651 4.282zM55.948 81.64L51.64 69.694H35.15L30.934 81.64H23.5l16.136-43.192h7.67L63.441 81.64h-7.493zm-6.164-18.006l-4.042-11.71c-.295-.785-.703-2.02-1.223-3.707-.522-1.687-.88-2.923-1.077-3.707-.531 2.412-1.309 5.05-2.331 7.914l-3.893 11.21h12.566z" fill="#fff"/></svg>