<svg width="120" height="120" fill="none" xmlns="http://www.w3.org/2000/svg"><path d="M60 120C26.864 120 0 93.136 0 60 0 26.864 26.864 0 60 0c33.136 0 60 26.864 60 60 0 33.136-26.864 60-60 60z" fill="#63B450"/><path d="M76.673 52.232c2.583-2.463 4.507-6.472 3.021-12.016-1.974-7.36-10.939-11.298-19.036-9.124-.598.16-.17.05-.797.21l-2.902-10.84-6.731 1.805 2.902 10.85-5.275 1.415-3.151-10.8-6.692 1.796 2.912 10.839-13.671 3.66 2.244 8.376 6.312-1.695c1.476-.4 3.021.578 3.45 2.163l8.067 30.095c.429 1.596-.429 3.201-1.904 3.6l-4.667 1.246.538 8.596 13.671-3.66 2.902 10.84 6.93-1.855-2.901-10.85 5.275-1.415 2.902 10.84 6.74-1.806-2.901-10.84c9.991-2.662 19.624-9.87 16.393-21.896-1.974-7.38-8.386-9.762-13.631-9.533zm-26.595-9.343c.05-.02.748-.2 7.668-2.055 4.059-1.087 7.06.788 7.938 3.94.878 3.15-.718 6.261-4.906 7.378-3.32.888-7.668 2.054-7.668 2.054l-3.032-11.318zm18.827 33.395c-4.408 1.176-9.214 2.473-9.214 2.473L55.463 63.27s2.114-.569 9.294-2.493c5.374-1.436 9.593.758 10.879 5.395 1.276 4.636-1.197 8.625-6.731 10.11z" fill="#fff"/></svg>