<svg width="99" height="100" fill="none" xmlns="http://www.w3.org/2000/svg"><g clip-path="url(#clip0)"><circle cx="50.167" cy="50.019" r="35.5" fill="#fff"/><path d="M55.82 39.11c-.352-2.686-2.569-4.578-5.988-4.165-5.832.71-6.421.785-6.462.785l1.153 9.643s3.665-.446 6.462-.793c3.526-.422 5.186-2.785 4.835-5.47zm-2.61 13.014c-6.053.736-7.828.959-7.836.959l1.644 13.196 7.771-.95c4.67-.57 7.141-3.553 6.626-7.503-.5-3.958-3.673-6.255-8.205-5.702z" fill="#F39325"/><path d="M94.903 31.202C84.768 5.718 56.105-6.636 30.887 3.594 5.66 13.832-6.577 42.787 3.557 68.271c10.136 25.484 38.798 37.837 64.017 27.6C92.8 85.63 105.038 56.676 94.903 31.2zM57.987 71.98l1.104 9.238-5.677.694-1.104-9.238-4.45.546 1.104 9.238-5.84.71-1.105-9.238-11.525 1.405.556-7.115 3.935-.48c1.243-.148 2.127-1.37 1.963-2.726L33.88 39.382c-.163-1.355-1.3-2.33-2.543-2.181l-5.317.653-.851-7.132 11.525-1.404-1.12-9.239 5.636-.686 1.309 9.214 4.45-.545-1.105-9.239 5.677-.694 1.104 9.238c.524-.066.164-.016.671-.082 6.83-.835 13.652 3.446 14.405 9.717.564 4.727-1.464 7.793-3.845 9.503 4.286.43 9.219 3.132 9.971 9.42 1.228 10.247-7.427 15.031-15.86 16.056z" fill="#F39325"/></g><defs><clipPath id="clip0"><path fill="#fff" d="M0 0h98.462v99.465H0z"/></clipPath></defs></svg>