<svg width="121" height="120" fill="none" xmlns="http://www.w3.org/2000/svg"><circle cx="60.5" cy="60" r="60" fill="red"/><path d="M78.982 75.19v-2.369s.21-6.167.224-9.253c0-.322-.086-.442-.396-.526-2.258-.598-4.485-1.286-6.577-2.345-2.685-1.356-4.743-3.352-5.848-6.174-1.397-3.574-1.088-7.047.94-10.336 1.442-2.339 3.548-3.82 6.064-4.788 1.673-.643 3.41-.965 5.183-1.13.197-.018.396-.05.754-.077V33h4.13v5.206c.96.083 1.563.163 2.168.242 1.962.25 3.848.778 5.586 1.737 3.9 2.151 6.01 5.5 6.45 9.93.035.357.059.713.09 1.115-2.915.131-5.786.263-8.698.394-.502-3.103-5.248-6.005-5.248-6.005v9.627s3.011.816 4.477 1.283c1.704.543 3.377 1.176 4.926 2.1a11.994 11.994 0 013.145 2.701c1.119 1.36 1.893 2.913 2.262 4.65.471 2.224.564 4.465-.021 6.672-.95 3.573-3.001 6.33-6.288 8.084-2.065 1.1-4.292 1.65-6.601 1.91-.613.069-1.226.124-1.556.19V88h-4.819v-5.24c-4.58-.374-8.587-1.657-11.564-5.162-2.32-2.732-3.325-6.011-3.765-9.578.874-.083 1.71-.159 2.547-.242l5.087-.498c.158-.014.316-.014.471-.045.303-.066.369.083.444.353.258.955.489 1.93.864 2.84 1.033 2.504 2.874 4.099 5.52 4.721.049.018.049.042.049.042zm4.818.24c.699-.17 1.377-.288 2.024-.495 1.917-.62 3.383-1.778 4.14-3.708.613-1.557.386-3.77-1.242-4.892-.502-.345-1.032-.68-1.597-.906-1.07-.425-2.175-.764-3.325-1.162V75.43zm-4.474-29.918c-.09 0-.162-.01-.227 0-1.132.197-2.234.522-3.232 1.096-.73.419-1.366.969-1.635 1.813-.54 1.705.014 3.248 1.57 4.137.84.477 1.765.806 2.657 1.19.268.114.554.19.867.297v-8.533zm-19.459 5.22c-2.839.697-5.634 1.383-8.411 2.062-.273-.752-.477-1.494-.8-2.18-1.336-2.85-3.566-4.497-6.603-4.985-2.063-.33-4.08-.104-5.977.788-2.278 1.072-3.897 2.835-4.869 5.213-.969 2.365-1.292 4.86-1.32 7.388-.016 1.675.11 3.354.191 5.03.109 2.333.622 4.572 1.778 6.589 1.738 3.037 4.38 4.625 7.82 4.82 2.061.115 3.962-.351 5.669-1.553 1.707-1.202 2.784-2.894 3.498-4.845.334-.906.595-1.839.905-2.793 2.73.888 5.484 1.783 8.252 2.685a23.353 23.353 0 01-2.197 5.625c-.846 1.54-1.883 2.926-3.162 4.117-2.203 2.051-4.8 3.288-7.708 3.862a22.907 22.907 0 01-8.153.15 17.312 17.312 0 01-7.926-3.42 18.59 18.59 0 01-5.182-6.133c-1.394-2.644-2.162-5.49-2.468-8.474a37.63 37.63 0 01.098-8.683c.494-3.786 1.65-7.332 3.9-10.432 1.898-2.612 4.302-4.597 7.212-5.903 2.846-1.279 5.858-1.714 8.95-1.655 2.862.052 5.63.564 8.214 1.874 2.989 1.519 5.338 3.734 6.82 6.83.61 1.268 1.157 2.57 1.47 4.023z" fill="#fff"/></svg>