<svg width="120" height="120" fill="none" xmlns="http://www.w3.org/2000/svg"><circle cx="60" cy="60" r="60" fill="#7E47C5"/><path d="M20.432 75V43.719h9.625c2.75 0 5.206.623 7.369 1.869 2.177 1.232 3.874 2.993 5.092 5.285 1.217 2.277 1.826 4.87 1.826 7.777v1.44c0 2.907-.602 5.493-1.805 7.756-1.189 2.263-2.872 4.017-5.049 5.263-2.177 1.247-4.633 1.877-7.369 1.891h-9.69zm6.445-26.06v20.882h3.115c2.521 0 4.448-.823 5.78-2.47 1.331-1.648 2.012-4.004 2.04-7.069V58.63c0-3.18-.658-5.586-1.976-7.219-1.318-1.647-3.244-2.47-5.78-2.47h-3.179zm39.36 19.615H54.935L52.786 75h-6.853l11.644-31.281h5.973L75.26 75h-6.854l-2.17-6.445zm-9.561-5.221h7.82l-3.931-11.709-3.89 11.709zm32.699-8.83l5.865-10.785h7.412L93.543 59.23 102.889 75h-7.498l-6.016-10.957L83.359 75h-7.498l9.346-15.77-9.11-15.511h7.413l5.865 10.785z" fill="#fff"/></svg>