<svg width="120" height="120" fill="none" xmlns="http://www.w3.org/2000/svg"><circle cx="60" cy="60" r="60" fill="#34A0DD"/><g clip-path="url(#clip0)" fill="#fff"><path d="M37 19h27.957s8.752-.26 13.847 6.795c5.095 7.056 4.18 11.886 4.18 11.886H73.71s-.437-4.658-3.526-7.445c-.929-.837-2.155-1.343-3.423-1.64-3.242-.386-6.113-.256-6.113-.256H46.016l.13 36.254h11.106V74H37V19z"/><path d="M73.709 42.777h9.275s.52 8.23 0 14.241c-.52 6.01-1.663 9.708-6.4 13.136C72.014 72.694 67.703 74 62.477 74v-9.406s5.226 1.045 8.881-2.745c2.875-3.46 2.35-13.716 2.35-13.716v-5.356z"/></g><path d="M22.205 94v-9.953h3.063c.875 0 1.656.198 2.344.595a4.089 4.089 0 011.62 1.681c.388.725.582 1.55.582 2.475v.458c0 .925-.192 1.748-.575 2.468a4.065 4.065 0 01-1.606 1.674c-.693.397-1.474.597-2.345.602h-3.083zm2.05-8.292v6.645h.992c.802 0 1.415-.262 1.839-.787.424-.524.64-1.273.65-2.249v-.526c0-1.012-.21-1.777-.63-2.297-.419-.524-1.032-.786-1.838-.786h-1.012zm15.231 3.541c0 .98-.173 1.839-.52 2.577-.346.739-.842 1.308-1.49 1.71-.642.4-1.38.6-2.214.6-.825 0-1.561-.197-2.208-.594-.647-.397-1.149-.962-1.504-1.695-.356-.739-.536-1.586-.54-2.543v-.493c0-.98.175-1.84.526-2.584.356-.747.855-1.319 1.497-1.715.647-.401 1.386-.602 2.215-.602.83 0 1.566.2 2.208.602.647.396 1.146.968 1.497 1.716.356.742.533 1.601.533 2.577v.444zm-2.078-.451c0-1.044-.187-1.837-.56-2.38-.374-.541-.907-.813-1.6-.813-.688 0-1.219.27-1.593.807-.373.533-.563 1.317-.567 2.352v.485c0 1.016.187 1.805.56 2.365.374.56.912.841 1.614.841.688 0 1.216-.269 1.586-.807.369-.542.556-1.33.56-2.365v-.485zm11.32 2.33l1.34-7.081h2.044L49.904 94H47.84l-1.62-6.658L44.6 94h-2.065l-2.208-9.953h2.044l1.347 7.068 1.64-7.068h1.737l1.633 7.082zm11.998-7.081h2.05v6.89c0 .634-.14 1.195-.424 1.682a2.837 2.837 0 01-1.182 1.121c-.51.265-1.087.397-1.73.397-1.052 0-1.873-.267-2.46-.8-.588-.538-.882-1.297-.882-2.276h2.064c0 .487.103.847.308 1.08.205.232.528.348.97.348.392 0 .705-.134.937-.403.232-.269.349-.652.349-1.148v-6.891zm11.983 5.202c0 .98-.173 1.839-.52 2.577-.346.739-.843 1.308-1.49 1.71-.642.4-1.38.6-2.215.6-.825 0-1.56-.197-2.208-.594-.647-.397-1.148-.962-1.504-1.695-.355-.739-.535-1.586-.54-2.543v-.493c0-.98.176-1.84.527-2.584.355-.747.854-1.319 1.497-1.715.647-.401 1.385-.602 2.215-.602.83 0 1.565.2 2.208.602.647.396 1.146.968 1.497 1.716.355.742.533 1.601.533 2.577v.444zm-2.078-.451c0-1.044-.187-1.837-.56-2.38-.374-.541-.908-.813-1.6-.813-.688 0-1.22.27-1.593.807-.374.533-.563 1.317-.567 2.352v.485c0 1.016.186 1.805.56 2.365.374.56.912.841 1.613.841.689 0 1.217-.269 1.586-.807.37-.542.556-1.33.56-2.365v-.485zM82.293 94h-2.05l-3.993-6.549V94H74.2v-9.953h2.05l3.999 6.562v-6.562h2.044V94zm7.78-4.314h-3.938v2.666h4.62V94h-6.671v-9.953h6.658v1.661h-4.607v2.372h3.937v1.606zm7.047 1.703c0-.388-.137-.684-.41-.889-.273-.21-.766-.428-1.477-.656-.71-.233-1.273-.46-1.688-.684-1.13-.61-1.695-1.433-1.695-2.468a2.4 2.4 0 01.45-1.435c.306-.424.741-.754 1.306-.991.57-.237 1.208-.356 1.915-.356.71 0 1.344.13 1.9.39.556.255.987.617 1.292 1.087.31.47.465 1.002.465 1.6h-2.051c0-.456-.144-.81-.43-1.06-.288-.256-.691-.383-1.21-.383-.502 0-.892.107-1.17.321a.994.994 0 00-.417.834c0 .324.162.595.486.814.328.218.809.423 1.442.615 1.167.35 2.017.786 2.55 1.306.533.52.8 1.166.8 1.941 0 .861-.326 1.538-.978 2.03-.651.488-1.529.732-2.632.732-.765 0-1.462-.14-2.091-.417-.63-.283-1.11-.668-1.443-1.156-.328-.487-.492-1.052-.492-1.695H93.6c0 1.098.656 1.648 1.968 1.648.488 0 .868-.098 1.142-.294.273-.2.41-.479.41-.834z" fill="#fff"/><defs><clipPath id="clip0"><path fill="#fff" transform="translate(37 19)" d="M0 0h46.217v55H0z"/></clipPath></defs></svg>