<svg width="120" height="120" fill="none" xmlns="http://www.w3.org/2000/svg"><g clip-path="url(#clip0)"><path d="M68.03 47.185c-.428-3.24-3.13-5.523-7.297-5.025-7.108.857-7.826.947-7.876.947l1.406 11.634s4.466-.538 7.875-.957c4.297-.508 6.32-3.36 5.892-6.6zm-3.18 15.701c-7.377.887-9.54 1.157-9.55 1.157l2.003 15.92 9.471-1.146c5.692-.688 8.703-4.287 8.075-9.052-.608-4.775-4.476-7.547-9.999-6.879z" fill="#F39325"/><path d="M115.663 37.644C103.311 6.899 68.379-8.006 37.643 4.337 6.9 16.689-8.014 51.62 4.338 82.367c12.352 30.744 47.284 45.648 78.019 33.296 30.745-12.351 45.659-47.284 33.307-78.019zm-44.99 49.198l1.345 11.146-6.919.837-1.346-11.145-5.423.658 1.346 11.145-7.118.858-1.346-11.146-14.047 1.695.678-8.584 4.795-.578c1.516-.18 2.593-1.655 2.393-3.29l-3.738-30.924c-.2-1.635-1.585-2.812-3.1-2.632l-6.48.787-1.038-8.603 14.047-1.695-1.366-11.146 6.87-.827 1.594 11.116 5.423-.658-1.345-11.146 6.918-.837 1.346 11.145c.638-.08.2-.02.818-.1 8.324-1.006 16.638 4.158 17.555 11.724.688 5.703-1.784 9.401-4.685 11.465 5.224.519 11.235 3.778 12.153 11.365 1.495 12.362-9.053 18.134-19.33 19.37z" fill="#F39325"/><path d="M59.985 119.97C26.857 119.97 0 93.113 0 59.985S26.857 0 59.985 0s59.985 26.857 59.985 59.985-26.857 59.985-59.985 59.985z" fill="#DAEEF9"/><path d="M59.985 42.987l29.01 17.427-29.01 17.436V42.987z" fill="#0D5B79"/><path d="M59.985 42.987l-29.01 17.427 29.01 17.436V42.987z" fill="#397F9E"/><path d="M59.985 42.987l-29.01 17.427 29.01-48.65v31.223z" fill="#63BFEB"/><path d="M59.985 42.987l29.01 17.427-29.01-48.65v31.223z" fill="#2D79A3"/><path d="M59.985 83.822v24.384l29.01-41.82-29.01 17.436z" fill="#146E8F"/><path d="M59.985 83.822l-29.01-17.437 29.01 41.821V83.821z" fill="#63BFEB"/><path d="M59.985 119.97C26.857 119.97 0 93.113 0 59.985S26.857 0 59.985 0s59.985 26.857 59.985 59.985-26.857 59.985-59.985 59.985z" fill="#DAEEF9"/><path d="M59.985 42.987l29.01 17.427-29.01 17.436V42.987z" fill="#0D5B79"/><path d="M59.985 42.987l-29.01 17.427 29.01 17.436V42.987z" fill="#397F9E"/><path d="M59.985 42.987l-29.01 17.427 29.01-48.65v31.223z" fill="#63BFEB"/><path d="M59.985 42.987l29.01 17.427-29.01-48.65v31.223z" fill="#2D79A3"/><path d="M59.985 83.822v24.384l29.01-41.82-29.01 17.436z" fill="#146E8F"/><path d="M59.985 83.822l-29.01-17.437 29.01 41.821V83.821z" fill="#63BFEB"/></g><defs><clipPath id="clip0"><path fill="#fff" d="M0 0h120v120H0z"/></clipPath></defs></svg>