<svg width="120" height="120" fill="none" xmlns="http://www.w3.org/2000/svg"><circle cx="60" cy="60" r="60" fill="#41267B"/><g clip-path="url(#clip0)"><path d="M67.714 86.745c-10.509 0-19.819-5.975-24.133-15.173h35.971l3.88-9.255H41.364a32.245 32.245 0 01-.008-3.636h42.9l3.87-9.255H43.579c4.247-9.02 13.366-14.99 23.678-15.171h.056l.155-.002h.249c7.832 0 15.233 3.389 20.306 9.298l1.96 2.28 4.02-9.61-.874-.858C86.332 28.681 77.307 25 67.714 25h-.467c-15.416.194-28.96 10.119-33.725 24.426h-6.683l-3.993 9.255h9.135a45.281 45.281 0 000 3.636h-8.126L20 71.572h13.514C38.324 86.062 52.066 96 67.714 96c8.353 0 16.493-2.889 22.921-8.137l.669-.546V73.611l-3.255 3.804c-5.073 5.93-12.485 9.33-20.335 9.33z" fill="#fff"/></g><defs><clipPath id="clip0"><path fill="#fff" transform="translate(20 25)" d="M0 0h74v71H0z"/></clipPath></defs></svg>