<svg width="98" height="98" fill="none" xmlns="http://www.w3.org/2000/svg"><g clip-path="url(#clip0)"><path d="M49 98c27.062 0 49-21.938 49-49S76.062 0 49 0 0 21.938 0 49s21.938 49 49 49z" fill="#3C5A9A"/><path d="M62.96 21h-9.17c-5.442 0-11.495 2.234-11.495 9.933.027 2.682 0 5.251 0 8.142H36v9.778h6.49V77h11.926V48.667h7.872L63 39.048h-8.79s.02-4.279 0-5.522c0-3.042 3.244-2.868 3.44-2.868 1.543 0 4.544.005 5.314 0V21h-.004z" fill="#fff"/></g><defs><clipPath id="clip0"><path fill="#fff" d="M0 0h98v98H0z"/></clipPath></defs></svg>