<svg width="120" height="120" fill="none" xmlns="http://www.w3.org/2000/svg"><circle cx="60" cy="60" r="60" fill="#9E1A81"/><path d="M33.215 62.379h-11.25V74h-5.86V45.562h18.516v4.747H21.965v7.343h11.25v4.727zm26.601-12.07h-8.71V74h-5.86V50.309h-8.594v-4.746h23.164v4.746zm17.793 16.23c0-1.107-.39-1.953-1.171-2.539-.782-.599-2.188-1.224-4.22-1.875-2.03-.664-3.639-1.315-4.824-1.953-3.229-1.745-4.843-4.095-4.843-7.05 0-1.537.43-2.905 1.289-4.102.872-1.211 2.116-2.155 3.73-2.833 1.628-.677 3.45-1.015 5.47-1.015 2.03 0 3.84.371 5.429 1.113 1.588.73 2.819 1.765 3.691 3.106.886 1.34 1.328 2.864 1.328 4.57h-5.86c0-1.302-.41-2.311-1.23-3.027-.82-.73-1.972-1.094-3.457-1.094-1.432 0-2.545.306-3.34.918-.794.599-1.19 1.393-1.19 2.383 0 .924.461 1.699 1.386 2.324.937.625 2.311 1.21 4.121 1.758 3.333 1.002 5.762 2.246 7.285 3.73 1.524 1.484 2.285 3.334 2.285 5.547 0 2.46-.93 4.394-2.793 5.8-1.862 1.394-4.368 2.09-7.52 2.09-2.187 0-4.179-.397-5.976-1.19-1.797-.808-3.17-1.908-4.12-3.302-.938-1.393-1.407-3.007-1.407-4.843h5.879c0 3.138 1.875 4.707 5.625 4.707 1.393 0 2.48-.28 3.261-.84.782-.573 1.172-1.367 1.172-2.383zm26.973-4.863h-11.25v7.617h13.203V74H87.473V45.562h19.023v4.747H93.332v6.777h11.25v4.59z" fill="#fff"/></svg>