<svg width="98" height="98" fill="none" xmlns="http://www.w3.org/2000/svg"><path d="M49 98c27.062 0 49-21.938 49-49S76.062 0 49 0 0 21.938 0 49s21.938 49 49 49z" fill="#E0BD62"/><path d="M25.387 45.23l4.799-8.824h6.064l-7.453 12.692L36.443 62H30.31l-4.922-8.965L20.465 62H14.33l7.647-12.902-7.454-12.692h6.065l4.799 8.825zm28.178 11.497h-9.247L42.56 62h-5.607l9.527-25.594h4.887L60.947 62H55.34l-1.776-5.273zm-7.823-4.272h6.399l-3.217-9.58-3.182 9.58zm36.65-16.049v16.858c0 2.8-.878 5.015-2.636 6.644-1.746 1.63-4.137 2.444-7.172 2.444-2.988 0-5.361-.791-7.12-2.373-1.757-1.582-2.654-3.756-2.689-6.522v-17.05h5.274v16.892c0 1.676.398 2.9 1.195 3.674.809.761 1.922 1.142 3.34 1.142 2.965 0 4.47-1.558 4.518-4.675V36.406h5.29z" fill="#fff"/></svg>