<svg width="120" height="120" fill="none" xmlns="http://www.w3.org/2000/svg"><circle cx="60" cy="60" r="60" fill="#2C4CBC"/><path d="M45.535 73h-5.86L28.27 54.29V73h-5.86V44.562h5.86l11.425 18.75v-18.75h5.84V73zm5.117 0V44.562h8.75c2.5 0 4.733.567 6.7 1.7 1.979 1.12 3.522 2.721 4.629 4.804 1.106 2.07 1.66 4.427 1.66 7.07v1.31c0 2.643-.547 4.993-1.641 7.05-1.08 2.057-2.61 3.652-4.59 4.785-1.979 1.133-4.212 1.706-6.7 1.719h-8.808zm5.86-23.691v18.984h2.832c2.291 0 4.043-.749 5.254-2.246 1.21-1.498 1.83-3.64 1.855-6.426v-1.504c0-2.89-.599-5.078-1.797-6.562-1.198-1.498-2.949-2.246-5.254-2.246h-2.89zm29.902 5.058l5.332-9.804h6.738l-8.28 14.101L98.698 73h-6.816l-5.469-9.96L80.945 73H74.13l8.496-14.336-8.281-14.102h6.738l5.332 9.805z" fill="#fff"/></svg>