<svg width="121" height="120" fill="none" xmlns="http://www.w3.org/2000/svg"><circle cx="60.5" cy="60" r="60" fill="#58B8ED"/><path d="M58.201 76h-6.445L39.209 55.418V76h-6.445V44.719h6.445l12.568 20.625V44.719h6.424V76zm30.38-3.953c-1.161 1.39-2.801 2.47-4.92 3.244-2.12.76-4.47 1.139-7.048 1.139-2.707 0-5.084-.588-7.132-1.762-2.034-1.189-3.61-2.908-4.727-5.156-1.103-2.249-1.669-4.892-1.697-7.928v-2.127c0-3.122.522-5.822 1.568-8.1 1.06-2.291 2.578-4.039 4.555-5.242 1.99-1.217 4.318-1.826 6.982-1.826 3.71 0 6.61.888 8.701 2.664 2.091 1.762 3.33 4.333 3.717 7.713h-6.273c-.287-1.79-.924-3.1-1.913-3.932-.973-.83-2.32-1.246-4.038-1.246-2.192 0-3.86.824-5.006 2.471-1.146 1.647-1.726 4.096-1.74 7.348v1.998c0 3.28.622 5.758 1.868 7.433 1.247 1.676 3.073 2.514 5.479 2.514 2.42 0 4.147-.516 5.178-1.547v-5.392h-5.866v-4.748H88.58v12.482z" fill="#fff"/></svg>