<svg width="120" height="120" fill="none" xmlns="http://www.w3.org/2000/svg"><circle cx="60" cy="60" r="60" fill="#88769F"/><path d="M36.59 74h-5.86L19.325 55.29V74h-5.86V45.562h5.86l11.426 18.75v-18.75h5.84V74zm24.004 0H41.102v-3.867l9.199-9.805c1.263-1.38 2.194-2.585 2.793-3.613.612-1.029.918-2.005.918-2.93 0-1.263-.32-2.252-.957-2.969-.638-.729-1.55-1.093-2.735-1.093-1.276 0-2.285.442-3.027 1.328-.73.872-1.094 2.024-1.094 3.457h-5.664c0-1.732.41-3.314 1.23-4.746.834-1.433 2.006-2.552 3.516-3.36 1.51-.82 3.223-1.23 5.137-1.23 2.93 0 5.202.703 6.816 2.11 1.628 1.406 2.442 3.391 2.442 5.956 0 1.407-.365 2.839-1.094 4.297-.73 1.459-1.98 3.158-3.75 5.098l-6.465 6.816h12.227V74zm22.968 0H64.07v-3.867l9.2-9.805c1.263-1.38 2.194-2.585 2.793-3.613.611-1.029.918-2.005.918-2.93 0-1.263-.32-2.252-.958-2.969-.638-.729-1.549-1.093-2.734-1.093-1.276 0-2.285.442-3.027 1.328-.73.872-1.094 2.024-1.094 3.457h-5.664c0-1.732.41-3.314 1.23-4.746.834-1.433 2.006-2.552 3.516-3.36 1.51-.82 3.223-1.23 5.137-1.23 2.93 0 5.201.703 6.816 2.11 1.628 1.406 2.441 3.391 2.441 5.956 0 1.407-.364 2.839-1.093 4.297-.73 1.459-1.98 3.158-3.75 5.098l-6.465 6.816h12.227V74zm4.317-13.984l1.64-14.453h15.938v4.706H94.148l-.703 6.114a8.95 8.95 0 014.278-1.074c2.708 0 4.83.84 6.367 2.52 1.536 1.679 2.305 4.03 2.305 7.05 0 1.836-.391 3.483-1.172 4.941a8.22 8.22 0 01-3.321 3.38c-1.445.793-3.15 1.19-5.117 1.19-1.719 0-3.314-.344-4.785-1.034-1.471-.704-2.637-1.687-3.496-2.95-.846-1.263-1.296-2.702-1.348-4.316h5.586c.117 1.185.527 2.11 1.23 2.773.717.651 1.648.977 2.794.977 1.276 0 2.259-.456 2.949-1.367.69-.925 1.035-2.227 1.035-3.907 0-1.614-.397-2.851-1.191-3.71-.795-.86-1.921-1.29-3.38-1.29-1.34 0-2.428.352-3.261 1.055l-.547.508-4.492-1.113z" fill="#fff"/></svg>