<svg width="121" height="120" fill="none" xmlns="http://www.w3.org/2000/svg"><path d="M60.5 120c-33.136 0-60-26.864-60-60 0-33.136 26.864-60 60-60 33.136 0 60 26.864 60 60 0 33.136-26.864 60-60 60z" fill="#23797E"/><path d="M108.5 67.967c0-3.148-.815-5.452-2.423-6.847-1.459-1.281-4.266-2.455-8.345-3.49l-.319-.08v-9.678l.615.313c.358.182.695.389.999.613 1.321.976 2.098 2.29 2.313 3.908h6.257c-.34-3.188-1.648-5.766-3.894-7.668-1.632-1.381-3.632-2.3-5.944-2.727l-.346-.065V38h-5.66v4.175l-.364.05c-2.663.376-4.896 1.288-6.636 2.71-2.338 1.912-3.524 4.54-3.524 7.81 0 2.902.88 5.055 2.617 6.402 1.409 1.098 3.964 2.156 7.596 3.146l.311.086v10.44l-.552-.176c-.83-.266-1.563-.646-2.174-1.133-1.267-1.007-1.989-2.426-2.15-4.223h-6.185c.248 3.45 1.53 6.156 3.81 8.05 1.767 1.464 4.084 2.402 6.887 2.786l.365.05v4.18h5.66v-4.171l.369-.047c2.819-.364 5.179-1.25 7.017-2.632 2.489-1.874 3.7-4.339 3.7-7.536zM91.753 56.148l-.55-.173c-.928-.293-1.614-.56-2.096-.818-1.234-.65-1.862-1.598-1.862-2.818 0-1.6.581-2.868 1.727-3.772.613-.483 1.372-.839 2.256-1.058l.524-.13v8.77h.001zm8.492 15.768c-.65.379-1.429.67-2.316.87l-.516.114v-9.13l.546.165c1.338.404 2.273.794 2.857 1.191 1.058.701 1.597 1.803 1.597 3.274 0 1.497-.73 2.68-2.168 3.516zM44.843 77.95H35.32L19.952 51.223h-.217c.306 4.721.46 8.088.46 10.101V77.95H13.5V42.62h9.448l15.346 26.46h.17c-.242-4.59-.363-7.837-.363-9.738V42.619h6.742v35.33zm31.924 0H50.473v-4.858l16.94-24.287h-16.48V42.62h25.374v4.832L59.392 71.764h17.375v6.186z" fill="#fff"/></svg>