<svg width="121" height="120" fill="none" xmlns="http://www.w3.org/2000/svg"><g clip-path="url(#clip0)"><path d="M120.5 60c0 33.136-26.864 60-60 60-33.136-.003-60-26.864-60-60 0-33.14 26.864-60 60-60 33.136 0 60 26.86 60 60z" fill="#A99999"/><path d="M32.678 54.504l5.865-10.785h7.412l-9.11 15.511L46.192 75h-7.498l-6.015-10.957L26.662 75h-7.498l9.346-15.77-9.11-15.51h7.413l5.865 10.785zm23.224 9.474V75h-6.445V43.719H61.66c2.35 0 4.412.43 6.188 1.289 1.79.86 3.165 2.084 4.125 3.674.96 1.575 1.44 3.373 1.44 5.392 0 3.065-1.054 5.486-3.16 7.262-2.09 1.762-4.99 2.642-8.7 2.642h-5.65zm0-5.22h5.758c1.705 0 3-.401 3.889-1.203.902-.802 1.353-1.948 1.353-3.438 0-1.532-.45-2.771-1.353-3.717-.903-.945-2.149-1.432-3.739-1.46h-5.908v9.818zm45.504-9.819h-9.582V75H85.38V48.94h-9.453v-5.221h25.48v5.22z" fill="#fff"/></g><defs><clipPath id="clip0"><path fill="#fff" d="M.5 0h120v119.997H.5z"/></clipPath></defs></svg>