<svg width="120" height="120" fill="none" xmlns="http://www.w3.org/2000/svg"><path d="M60 120C26.864 120 0 93.136 0 60 0 26.864 26.864 0 60 0c33.136 0 60 26.864 60 60 0 33.136-26.864 60-60 60z" fill="#1E61AE"/><path d="M47.528 91.944c.122 0 .247.001.371.005 2.089.058 3.993.621 5.834 1.168l.357.105c4.987 1.473 10.386 2.017 16.754 1.683 4.563-.24 9.204-.96 14.156-2.2l-4.096-8.921c-4.236.839-8.164 1.248-11.995 1.248-1.7 0-3.398-.085-5.046-.25-4.132-.415-7.647-1.4-10.746-3.008l-1.288-.668.764-1.231c3.021-4.876 4.367-9.168 4.237-13.51l-.052-2.092h2.2c.797.006 1.583.008 2.369.008l4.861-.004h2.63v-8.355l-3.744-.002-10.18.013-.553-1.486c-.944-2.84-1.838-6.233-1.304-9.892.548-3.767 3.344-6.7 6.799-7.13a12.724 12.724 0 011.585-.101c4.02 0 7.082 1.987 8.503 5.482l12.581-1.847a23.432 23.432 0 00-2.445-6.625c-2.64-4.748-6.56-7.702-11.65-8.779-4.663-.987-9.398-.657-14.073.985-4.017 1.41-7.146 3.592-9.568 6.67-2.074 2.637-3.318 5.733-3.802 9.47-.586 4.512-.12 8.032 1.468 11.078l1.342 2.588h-2.976c-1.297-.01-3.942-.01-5.821-.01v8.136l1.629-.001h2.754c1.464 0 2.863-.002 3.879-.012h2.143l.104 2.158a20.722 20.722 0 01-1.433 8.018c-1.645 4.232-4.443 7.782-8.548 10.86l-.032.023 4.113 9.205c2.422-1.873 5.02-2.78 7.919-2.78z" fill="#fff"/></svg>