<svg width="120" height="120" fill="none" xmlns="http://www.w3.org/2000/svg"><path d="M60 120C26.864 120 0 93.136 0 60 0 26.864 26.864 0 60 0c33.136 0 60 26.864 60 60 0 33.136-26.864 60-60 60z" fill="#DAEEF9"/><path d="M58.674 37.015c0 2.932.788 5.674 2.154 8.047l-.02.01a6.834 6.834 0 01-11.837 6.831c-2.782-4.806-7.977-8.037-13.94-8.037-8.885 0-16.085 7.2-16.085 16.084 0 8.885 7.2 16.085 16.085 16.085a16.09 16.09 0 0013.94-8.038l.02.01a6.832 6.832 0 019.334-2.503 6.832 6.832 0 012.503 9.334 16.043 16.043 0 00-2.154 8.047c0 8.885 7.2 16.085 16.084 16.085 8.885 0 16.085-7.2 16.085-16.085 0-8.885-7.2-16.084-16.085-16.084v-.03a6.835 6.835 0 01-6.83-6.83c0-3.77 3.06-6.832 6.83-6.832 8.885 0 16.085-7.2 16.085-16.084 0-8.885-7.2-16.084-16.085-16.084-8.885-.01-16.084 7.19-16.084 16.074z" fill="url(#paint0_linear)"/><defs><linearGradient id="paint0_linear" x1="99.98" y1="93.563" x2="36.941" y2="30.524" gradientUnits="userSpaceOnUse"><stop stop-color="#0E67A1"/><stop offset="1" stop-color="#2DAFE6"/></linearGradient></defs></svg>