<svg width="121" height="120" fill="none" xmlns="http://www.w3.org/2000/svg"><g clip-path="url(#clip0)"><path d="M120.5 60c0 33.136-26.864 60-60 60-33.136-.003-60-26.864-60-60 0-33.14 26.864-60 60-60 33.136 0 60 26.86 60 60z" fill="#CBCBCB"/><path d="M30.938 54.504l5.865-10.785h7.412l-9.11 15.511L44.451 75h-7.498l-6.016-10.957L24.922 75h-7.498l9.346-15.77-9.11-15.511h7.412l5.866 10.785zm34.439 14.05h-11.3L51.926 75h-6.853L56.72 43.719h5.972L74.401 75h-6.854l-2.17-6.445zm-9.56-5.22h7.82l-3.932-11.709-3.889 11.709zm45.783 7.713c-1.161 1.39-2.8 2.47-4.92 3.244-2.12.76-4.47 1.139-7.047 1.139-2.707 0-5.085-.588-7.133-1.762-2.034-1.189-3.61-2.908-4.727-5.156-1.102-2.249-1.668-4.892-1.697-7.928v-2.127c0-3.122.523-5.822 1.569-8.1 1.06-2.291 2.578-4.039 4.554-5.242 1.991-1.217 4.319-1.826 6.983-1.826 3.71 0 6.61.888 8.7 2.664 2.092 1.762 3.331 4.333 3.718 7.713h-6.274c-.286-1.79-.924-3.1-1.912-3.932-.974-.83-2.32-1.246-4.039-1.246-2.191 0-3.86.824-5.006 2.471-1.146 1.647-1.726 4.096-1.74 7.348v1.998c0 3.28.623 5.758 1.869 7.433 1.246 1.676 3.072 2.514 5.479 2.514 2.42 0 4.146-.516 5.177-1.547v-5.392H89.29v-4.748h12.31v12.482z" fill="#fff"/></g><defs><clipPath id="clip0"><path fill="#fff" d="M.5 0h120v119.997H.5z"/></clipPath></defs></svg>