<svg width="120" height="120" fill="none" xmlns="http://www.w3.org/2000/svg"><circle cx="60" cy="60" r="60" fill="#951A21"/><path d="M47.867 44.523c0-.664-.234-1.171-.703-1.523-.469-.36-1.312-.734-2.531-1.125-1.219-.398-2.184-.79-2.895-1.172-1.937-1.047-2.906-2.457-2.906-4.23 0-.922.258-1.742.773-2.461.524-.727 1.27-1.293 2.239-1.7.976-.406 2.07-.609 3.281-.609 1.219 0 2.305.223 3.258.668.953.438 1.691 1.059 2.215 1.863.53.805.797 1.72.797 2.743h-3.516c0-.782-.246-1.387-.738-1.817-.493-.437-1.184-.656-2.075-.656-.859 0-1.527.184-2.004.55-.476.36-.714.837-.714 1.43 0 .555.277 1.02.832 1.395.562.375 1.386.727 2.472 1.055 2 .601 3.457 1.347 4.371 2.238.914.89 1.371 2 1.371 3.328 0 1.477-.558 2.637-1.675 3.48-1.117.836-2.621 1.254-4.512 1.254-1.313 0-2.508-.238-3.586-.715-1.078-.484-1.902-1.144-2.473-1.98-.562-.836-.843-1.805-.843-2.906h3.527c0 1.883 1.125 2.824 3.375 2.824.836 0 1.488-.168 1.957-.504.469-.344.703-.82.703-1.43zm5.227-.117c0-.789.218-1.52.656-2.191.445-.672 1.258-1.418 2.438-2.238-.508-.68-.907-1.317-1.196-1.91a4.28 4.28 0 01-.433-1.876c0-1.328.418-2.406 1.254-3.234.843-.836 1.976-1.254 3.398-1.254 1.273 0 2.316.379 3.129 1.137.82.758 1.23 1.703 1.23 2.836 0 1.36-.687 2.558-2.062 3.597l-1.313.95 2.942 3.422c.46-.907.691-1.907.691-3h2.883c0 2.218-.512 4.015-1.535 5.39L67.73 49h-3.844l-.88-1.008c-1.257.828-2.702 1.242-4.335 1.242-1.688 0-3.04-.441-4.055-1.324-1.015-.89-1.523-2.058-1.523-3.504zm5.742 2.11a4.29 4.29 0 002.309-.68l-3.364-3.89-.246.175c-.695.594-1.043 1.293-1.043 2.098 0 .68.215 1.234.645 1.664.437.422 1.004.633 1.699.633zm-1.242-10.371c0 .585.343 1.324 1.031 2.214l.902-.597c.461-.297.778-.586.95-.867.18-.282.27-.618.27-1.008s-.145-.73-.434-1.02c-.29-.289-.66-.433-1.114-.433-.484 0-.875.156-1.172.468-.289.313-.433.727-.433 1.242zm15.457 6.843V49h-3.516V31.937h6.656c1.282 0 2.407.235 3.375.704.977.468 1.727 1.136 2.25 2.004.524.859.786 1.84.786 2.94 0 1.673-.575 2.993-1.723 3.962-1.14.96-2.723 1.441-4.746 1.441H73.05zm0-2.847h3.14c.93 0 1.637-.22 2.121-.657.493-.437.739-1.062.739-1.875 0-.836-.246-1.511-.739-2.027-.492-.516-1.171-.781-2.039-.797h-3.222v5.356zM28.82 77.016l1.64-14.454h15.937v4.707H35.09l-.703 6.114a8.95 8.95 0 014.277-1.074c2.708 0 4.83.84 6.367 2.52 1.537 1.679 2.305 4.03 2.305 7.05 0 1.836-.39 3.483-1.172 4.941a8.217 8.217 0 01-3.32 3.38c-1.446.793-3.151 1.19-5.117 1.19-1.72 0-3.314-.344-4.786-1.034-1.47-.704-2.636-1.687-3.496-2.95-.846-1.263-1.295-2.702-1.347-4.316h5.586c.117 1.185.527 2.11 1.23 2.773.716.651 1.647.977 2.793.977 1.276 0 2.26-.456 2.95-1.367.69-.925 1.034-2.227 1.034-3.907 0-1.614-.397-2.851-1.191-3.71-.794-.86-1.92-1.29-3.379-1.29-1.341 0-2.428.352-3.262 1.055l-.547.508-4.492-1.113zm41.269 2.226c0 3.932-.814 6.94-2.442 9.024-1.627 2.083-4.01 3.125-7.148 3.125-3.099 0-5.469-1.023-7.11-3.067-1.64-2.044-2.48-4.974-2.519-8.789v-5.234c0-3.972.82-6.986 2.461-9.043 1.654-2.057 4.03-3.086 7.129-3.086 3.099 0 5.469 1.022 7.11 3.066 1.64 2.031 2.48 4.955 2.519 8.77v5.234zM64.445 73.5c0-2.357-.325-4.069-.976-5.137-.638-1.08-1.64-1.62-3.008-1.62-1.328 0-2.311.514-2.95 1.542-.624 1.016-.956 2.61-.995 4.785v6.914c0 2.318.312 4.043.937 5.176.638 1.12 1.654 1.68 3.047 1.68 1.38 0 2.376-.54 2.988-1.621.612-1.081.931-2.735.957-4.961V73.5zm28.614 5.742c0 3.932-.814 6.94-2.442 9.024-1.627 2.083-4.01 3.125-7.148 3.125-3.1 0-5.469-1.023-7.11-3.067-1.64-2.044-2.48-4.974-2.52-8.789v-5.234c0-3.972.821-6.986 2.462-9.043 1.653-2.057 4.03-3.086 7.129-3.086 3.099 0 5.468 1.022 7.11 3.066 1.64 2.031 2.48 4.955 2.519 8.77v5.234zM87.414 73.5c0-2.357-.326-4.069-.977-5.137-.638-1.08-1.64-1.62-3.007-1.62-1.328 0-2.312.514-2.95 1.542-.624 1.016-.957 2.61-.996 4.785v6.914c0 2.318.313 4.043.938 5.176.638 1.12 1.654 1.68 3.047 1.68 1.38 0 2.376-.54 2.988-1.621.612-1.081.931-2.735.957-4.961V73.5z" fill="#fff"/></svg>